<svg id="Layer_2" data-name="Layer 2" xmlns="http://www.w3.org/2000/svg" viewBox="0 0 24 24"><defs><style>.cls-1{fill:#FFFFFF;}.cls-2{fill:#000000;}</style></defs><path class="cls-1" d="M22.61,12A10.61,10.61,0,1,0,10.34,22.48V15.07H7.65V12h2.69V9.66c0-2.66,1.59-4.13,4-4.13a16.23,16.23,0,0,1,2.38.21V8.35H15.39A1.53,1.53,0,0,0,13.66,10v2H16.6l-.47,3.07H13.66v7.41A10.6,10.6,0,0,0,22.61,12Z"></path><path class="cls-2" d="M16.13,15.07,16.6,12H13.66V10a1.53,1.53,0,0,1,1.73-1.66h1.34V5.74a16.23,16.23,0,0,0-2.38-.21c-2.42,0-4,1.47-4,4.13V12H7.65v3.07h2.69v7.41a10.66,10.66,0,0,0,3.32,0V15.07Z"></path></svg>