<svg id="Layer_2" data-name="Layer 2" xmlns="http://www.w3.org/2000/svg" viewBox="0 0 24 24" fill="#000"><path d="M22.2,11.05A10.25,10.25,0,0,0,1.75,12a10.13,10.13,0,0,0,7.09,9.67.5.5,0,0,0,.64-.48V19.49A5,5,0,0,1,8,19.58a2.26,2.26,0,0,1-1.92-1.36A3.14,3.14,0,0,0,5,16.65c-.38-.27-.61-.49-.33-.6A1.51,1.51,0,0,1,6,16.46c.57.52.64,1.16,1.54,1.56a2.51,2.51,0,0,0,1.92-.11,2.12,2.12,0,0,1,.7-1.39C7.48,16.19,5.5,15,5.5,11.7a4.4,4.4,0,0,1,1.11-3l-.09.05a4.38,4.38,0,0,1-.19-1.27A3.39,3.39,0,0,1,6.63,6a2.55,2.55,0,0,1,1.55.33,7.57,7.57,0,0,1,1.23.71A9.85,9.85,0,0,1,12,6.72a9.7,9.7,0,0,1,2.58.33,7.83,7.83,0,0,1,1.23-.7A2.63,2.63,0,0,1,17.37,6a3.57,3.57,0,0,1,.3,1.44,4.1,4.1,0,0,1-.2,1.27l0,0a4.38,4.38,0,0,1,1.09,3c0,3.27-2,4.5-4.69,4.83a2.09,2.09,0,0,1,.71,1.57v3.12a.5.5,0,0,0,.64.48A10.12,10.12,0,0,0,22.2,11.05Z" fill="#000"></path></svg>