<svg id="Layer_2" data-name="Layer 2" xmlns="http://www.w3.org/2000/svg" viewBox="0 0 24 24" fill="#000000"><path d="M14.55,12.09A2.55,2.55,0,1,1,12,9.54,2.55,2.55,0,0,1,14.55,12.09Z" fill="#000000"></path><path d="M15.14,6.24H8.86A2.72,2.72,0,0,0,6.15,9v6.28A2.72,2.72,0,0,0,8.86,18h6.28a2.72,2.72,0,0,0,2.72-2.72V9A2.72,2.72,0,0,0,15.14,6.24ZM12,15.5a3.41,3.41,0,1,1,3.41-3.41A3.41,3.41,0,0,1,12,15.5ZM15.83,9a.77.77,0,1,1,.77-.77A.77.77,0,0,1,15.83,9Z" fill="#000000"></path><path d="M16.84,2H7.17A5.27,5.27,0,0,0,1.91,7.26v9.67a5.27,5.27,0,0,0,5.26,5.26h9.67a5.27,5.27,0,0,0,5.26-5.26V7.26A5.27,5.27,0,0,0,16.84,2Zm1.87,13.23a3.57,3.57,0,0,1-3.57,3.57H8.86A3.57,3.57,0,0,1,5.3,15.23V9A3.57,3.57,0,0,1,8.86,5.39h6.28A3.57,3.57,0,0,1,18.71,9Z" fill="#000000"></path></svg>