<svg id="Layer_2" data-name="Layer 2" xmlns="http://www.w3.org/2000/svg" viewBox="0 0 24 24"><defs><style>.cls-1{fill:#FFFFFF;}.cls-2{fill:#000000;}</style></defs><path class="cls-1" d="M22,20.59A1.41,1.41,0,0,1,20.59,22H3.41A1.41,1.41,0,0,1,2,20.59V3.41A1.41,1.41,0,0,1,3.41,2H21a1,1,0,0,1,1,1Z"></path><path class="cls-2" d="M6.76,5.38a1.55,1.55,0,1,0,0,3.09h0a1.55,1.55,0,1,0,0-3.09Z"></path><rect class="cls-2" x="5.25" y="9.69" width="2.97" height="8.93"></rect><path class="cls-2" d="M15.51,9.48A3,3,0,0,0,12.83,11V9.69h-3c0,.84,0,8.93,0,8.93h3v-5a2,2,0,0,1,.1-.72,1.61,1.61,0,0,1,1.52-1.09c1.08,0,1.51.82,1.51,2v4.78h3V13.5C18.92,10.75,17.46,9.48,15.51,9.48Z"></path></svg>