<svg id="Layer_2" data-name="Layer 2" xmlns="http://www.w3.org/2000/svg" viewBox="0 0 24 24"><defs><style>.cls-1{fill:#FFFFFF;}.cls-2{fill:#000000;}</style></defs><path class="cls-1" d="M22.17,12A10.17,10.17,0,0,1,9,21.72H9a8.11,8.11,0,0,1-.78-.28,10.17,10.17,0,1,1,14-9.43Z"></path><path class="cls-2" d="M18.52,11.87a6.76,6.76,0,0,1-1.38,4,5.11,5.11,0,0,1-3.58,1.94,3.46,3.46,0,0,1-1.66-.26,2.31,2.31,0,0,1-1-.85s-.46,1.81-.6,2.29a10.08,10.08,0,0,1-.47,1.27c-.11.27-.79,1.45-.79,1.45H9a8.11,8.11,0,0,1-.78-.28A8.57,8.57,0,0,1,8.4,18L9.46,13.5a5.32,5.32,0,0,1-.3-1.36c-.08-1,.47-2.87,2.12-2.65a1.2,1.2,0,0,1,.91.68,3.44,3.44,0,0,1-.12,2.23c-.18.68-1.63,3.38.69,3.74a2.45,2.45,0,0,0,1.81-.51A5.13,5.13,0,0,0,16.17,12c.09-2.27-.89-4.62-4.39-4.62A4.33,4.33,0,0,0,7.86,9.7a4.58,4.58,0,0,0-.46,2.67,3.81,3.81,0,0,0,.72,1.75.35.35,0,0,1,.06.31L7.9,15.54a.28.28,0,0,1-.39.19C5.7,14.85,4.65,11.68,6,9.05c1.49-2.9,4.37-3.63,7-3.48a5.93,5.93,0,0,1,4.18,2.16A6.16,6.16,0,0,1,18.52,11.87Z"></path></svg>