<svg id="Layer_2" data-name="Layer 2" xmlns="http://www.w3.org/2000/svg" viewBox="0 0 24 24"><defs><style>.cls-1{fill:#000000;}.cls-2{fill:#fff;}</style></defs><path id="vor3h" class="cls-1" d="M1.69,12.21a10.32,10.32,0,0,1,20.63-.5v.58A10.37,10.37,0,0,1,11.68,22.35a10.44,10.44,0,0,1-10-10.14Z"></path><path id="Fill-3" class="cls-2" d="M14.34,14.27a1.06,1.06,0,0,1-1.06-1.06,1.07,1.07,0,1,1,2.13,0,1.05,1.05,0,0,1-1.07,1.06m.2,1.78a3.93,3.93,0,0,1-2.55.81,4,4,0,0,1-2.56-.81.28.28,0,0,1,.4-.4,3.43,3.43,0,0,0,2.16.63,3.36,3.36,0,0,0,2.15-.63.28.28,0,0,1,.4.4m-6-2.84a1.09,1.09,0,0,1,1.09-1.1,1.08,1.08,0,0,1,0,2.16,1.09,1.09,0,0,1-1.09-1.06m10.34-1.1a1.53,1.53,0,0,0-1.52-1.52,1.49,1.49,0,0,0-1,.43,7.42,7.42,0,0,0-4-1.29L13,6.48,15.23,7A1.08,1.08,0,0,0,16.3,8a1.07,1.07,0,1,0-1-1.53l-2.5-.54a.24.24,0,0,0-.2,0,.18.18,0,0,0-.12.17l-.75,3.53v.06A7.46,7.46,0,0,0,7.68,11,1.52,1.52,0,1,0,6,13.47a2.32,2.32,0,0,0,0,.46c0,2.32,2.7,4.19,6,4.19s6-1.87,6-4.19a2.32,2.32,0,0,0,0-.46,1.49,1.49,0,0,0,.86-1.36"></path></svg>