<svg id="Layer_2" data-name="Layer 2" xmlns="http://www.w3.org/2000/svg" viewBox="0 0 24 24" fill="#000"><rect x="12.54" y="2" width="4.24" height="9.43" rx="2.12" fill="#000"></rect><rect x="7.21" y="12.57" width="4.24" height="9.43" rx="2.12" fill="#000"></rect><rect x="15.18" y="9.98" width="4.24" height="9.43" rx="2.12" transform="translate(2.6 31.99) rotate(-90)" fill="#000"></rect><rect x="4.6" y="4.64" width="4.24" height="9.43" rx="2.12" transform="translate(-2.63 16.08) rotate(-90)" fill="#000"></rect><path d="M12.54,17.81h2.09a2.09,2.09,0,0,1,2.09,2.09v0A2.09,2.09,0,0,1,14.64,22h0a2.09,2.09,0,0,1-2.09-2.09V17.81A0,0,0,0,1,12.54,17.81Z" fill="#000"></path><path d="M19.92,7.26h0A2.09,2.09,0,0,1,22,9.36v0a2.09,2.09,0,0,1-2.09,2.09H17.82a0,0,0,0,1,0,0V9.36A2.09,2.09,0,0,1,19.92,7.26Z" fill="#000"></path><path d="M7.25,2H9.34a2.09,2.09,0,0,1,2.09,2.09v0A2.09,2.09,0,0,1,9.34,6.19h0A2.09,2.09,0,0,1,7.25,4.09V2a0,0,0,0,1,0,0Z" transform="translate(18.69 8.19) rotate(180)" fill="#000"></path><path d="M4.08,12.57h0a2.09,2.09,0,0,1,2.09,2.09v0a2.09,2.09,0,0,1-2.09,2.09H2a0,0,0,0,1,0,0V14.67A2.09,2.09,0,0,1,4.08,12.57Z" transform="translate(8.16 29.33) rotate(180)" fill="#000"></path></svg>